<svg width="64" height="71" viewBox="0 0 64 71" fill="none" xmlns="http://www.w3.org/2000/svg">
<path d="M63.04 60.5656L50.24 47.7656C49.6 47.1256 48.832 46.8056 47.936 46.8056H35.328L39.104 26.2616L43.392 27.0296L43.456 27.0936L62.016 30.4856H62.208C62.5067 30.4856 62.7413 30.3896 62.912 30.1976C63.0827 30.0056 63.168 29.7603 63.168 29.4616C62.912 25.323 61.8027 21.4616 59.84 17.8776C57.8773 14.2936 55.2533 11.2963 51.968 8.88564C48.6827 6.47498 45.0133 4.86431 40.96 4.05364L40.64 3.98964H40.512C40.384 3.98964 40.2987 3.96831 40.256 3.92564C36.2027 3.24298 32.2133 3.46698 28.288 4.59764C24.3627 5.72831 20.864 7.61631 17.792 10.2616C14.72 12.907 12.3307 16.107 10.624 19.8616C10.5387 20.1176 10.56 20.3843 10.688 20.6616C10.816 20.939 11.0293 21.099 11.328 21.1416L19.456 22.6776L30.272 24.6616H30.4L34.112 25.3656L30.144 46.8056H18.88L13.44 41.3656L13.952 40.7896C14.4213 40.2776 14.656 39.6803 14.656 38.9976C14.656 38.315 14.4213 37.7176 13.952 37.2056L9.664 32.8536C9.152 32.3416 8.544 32.0856 7.84 32.0856C7.136 32.0856 6.528 32.3416 6.016 32.8536L5.504 33.4296C4.864 32.7896 4.10667 32.4696 3.232 32.4696C2.35733 32.4696 1.6 32.7896 0.96 33.4296C0.32 34.0696 0 34.827 0 35.7016C0 36.5763 0.32 37.3336 0.96 37.9736L15.232 52.3096C15.5307 52.6083 15.8933 52.843 16.32 53.0136L10.176 64.0216C10.048 64.235 10.0267 64.4696 10.112 64.7256C10.1973 64.9816 10.3467 65.1736 10.56 65.3016L13.44 66.9016C13.6533 67.0296 13.888 67.051 14.144 66.9656C14.4 66.8803 14.592 66.731 14.72 66.5176L22.016 53.2056H28.928L26.88 64.4056C26.8373 64.6616 26.8907 64.8963 27.04 65.1096C27.1893 65.323 27.392 65.451 27.648 65.4936L30.848 66.1336C31.104 66.1763 31.3387 66.123 31.552 65.9736C31.7653 65.8243 31.8933 65.6216 31.936 65.3656L34.176 53.2056H46.656L58.496 65.1096C59.136 65.7496 59.8933 66.0696 60.768 66.0696C61.6427 66.0696 62.4 65.7496 63.04 65.1096C63.68 64.4696 64 63.7123 64 62.8376C64 61.963 63.68 61.2056 63.04 60.5656ZM61.76 63.7656C61.504 64.0216 61.184 64.1496 60.8 64.1496C60.416 64.1496 60.096 64.0216 59.84 63.7656L47.68 51.6056C47.5093 51.435 47.296 51.3496 47.04 51.3496H17.536C17.152 51.3496 16.832 51.2216 16.576 50.9656L2.304 36.6296C2.13333 36.3736 2.06933 36.0856 2.112 35.7656C2.15467 35.4456 2.28267 35.179 2.496 34.9656C2.70933 34.7523 2.976 34.6243 3.296 34.5816C3.616 34.539 3.904 34.603 4.16 34.7736L17.792 48.4056C17.9627 48.619 18.1973 48.7256 18.496 48.7256H47.936C48.32 48.7256 48.64 48.8536 48.896 49.1096L61.76 61.9096C62.016 62.1656 62.144 62.475 62.144 62.8376C62.144 63.2003 62.016 63.5096 61.76 63.7656ZM28.928 63.8296L30.848 53.2056H32.256L30.208 64.0856L28.928 63.8296ZM12.288 64.0856L18.304 53.2056H19.904L13.504 64.7896L12.288 64.0856ZM7.36 34.1976C7.488 34.0696 7.648 34.0056 7.84 34.0056C8.032 34.0056 8.192 34.0696 8.32 34.1976L12.672 38.4856C12.8 38.6136 12.864 38.7843 12.864 38.9976C12.864 39.211 12.8 39.3816 12.672 39.5096L12.16 39.9576L6.912 34.7096L7.36 34.1976ZM30.464 5.97364C28.1173 7.38165 25.9413 9.34431 23.936 11.8616C21.9307 14.379 20.288 17.3016 19.008 20.6296L12.864 19.5416C14.6133 16.0856 17.0347 13.163 20.128 10.7736C23.2213 8.38431 26.6667 6.78431 30.464 5.97364ZM61.184 28.3736L54.784 27.2216C54.7413 23.595 54.2187 20.2243 53.216 17.1096C52.2133 13.995 50.816 11.371 49.024 9.23764C52.3947 11.3283 55.1467 14.0483 57.28 17.3976C59.4133 20.747 60.6933 24.4056 61.12 28.3736H61.184ZM49.408 13.0776C51.712 17.387 52.864 21.9736 52.864 26.8376L44.608 25.3656C45.376 20.843 45.5893 16.875 45.248 13.4616C44.9493 10.9016 44.352 8.74698 43.456 6.99764C46.016 8.44831 48 10.475 49.408 13.0776ZM42.752 25.0456L39.488 24.4056L38.528 24.2776L35.328 23.6376L34.432 23.5096L31.68 22.9976C32.4053 19.4136 33.344 16.299 34.496 13.6536C35.3493 11.6483 36.3093 9.98431 37.376 8.66164C38.2293 7.55231 39.2747 6.67764 40.512 6.03764C41.4507 7.06165 42.112 8.25631 42.496 9.62164C43.0507 11.2003 43.3707 13.099 43.456 15.3176C43.584 18.1763 43.3493 21.419 42.752 25.0456ZM37.696 5.65364C36.2027 6.93364 34.8373 8.74698 33.6 11.0936C32.0213 14.1656 30.7627 18.027 29.824 22.6776L20.864 21.0136C22.5707 16.4483 25.28 12.5443 28.992 9.30164C30.1867 8.23498 31.5307 7.39231 33.024 6.77364C34.5173 6.15498 36.0747 5.78164 37.696 5.65364ZM37.248 25.9416L33.408 46.8056H32.064L35.968 25.6856L37.248 25.9416Z" fill="#735C2B"/>
</svg>
