<svg width="66" height="71" viewBox="0 0 66 71" fill="none" xmlns="http://www.w3.org/2000/svg">
<path d="M64.9995 29.0776C64.7009 27.5843 64.1675 26.0056 63.3995 24.3416C61.8635 21.0136 59.8155 18.5176 57.2555 16.8536C56.3169 16.2136 55.2929 15.7016 54.1835 15.3176C56.1462 15.3603 58.0662 15.6803 59.9435 16.2776C60.2849 16.4056 60.5729 16.3203 60.8075 16.0216C61.0422 15.723 61.0742 15.403 60.9035 15.0616C59.6235 13.3123 58.0342 11.9363 56.1355 10.9336C54.2369 9.93096 52.2209 9.40829 50.0875 9.36563H49.8955C48.4022 9.36563 46.9942 9.66429 45.6715 10.2616V10.1976C45.4155 9.21629 44.6262 8.51229 43.3035 8.08563C42.4502 7.82963 41.3409 7.70163 39.9755 7.70163C38.7382 7.65896 37.6502 7.78696 36.7115 8.08563C35.3889 8.51229 34.5995 9.21629 34.3435 10.1976V10.2616C32.9355 9.62163 31.4635 9.32296 29.9275 9.36563H29.8635C27.7302 9.40829 25.7142 9.93096 23.8155 10.9336C21.9169 11.9363 20.3275 13.3123 19.0475 15.0616C18.9622 15.2323 18.9195 15.403 18.9195 15.5736C18.9195 15.7443 18.9835 15.9043 19.1115 16.0536C19.2395 16.203 19.3889 16.299 19.5595 16.3416C19.7302 16.3843 19.9009 16.363 20.0715 16.2776C21.9489 15.6803 23.8689 15.3603 25.8315 15.3176C24.7222 15.7016 23.6982 16.2136 22.7595 16.8536C22.0769 17.2803 21.4369 17.771 20.8395 18.3256L20.3275 18.7736C19.7729 18.091 18.9409 17.7923 17.8315 17.8776C17.0209 17.9203 16.1142 18.123 15.1115 18.4856C14.1089 18.8483 13.2875 19.2856 12.6475 19.7976C11.7515 20.4803 11.3249 21.2483 11.3675 22.1016C10.1729 22.059 8.99955 22.251 7.84755 22.6776C6.18355 23.3176 4.75421 24.3096 3.55955 25.6536C2.36488 26.9976 1.51155 28.523 0.999547 30.2296C0.914214 30.4003 0.914214 30.5816 0.999547 30.7736C1.08488 30.9656 1.21288 31.115 1.38355 31.2216C1.55421 31.3283 1.73555 31.371 1.92755 31.3496C2.11955 31.3283 2.27955 31.2323 2.40755 31.0616C3.38888 30.2936 4.45555 29.6536 5.60755 29.1416C3.94355 30.763 2.83421 32.7043 2.27955 34.9656C1.68221 37.355 1.55421 39.787 1.89555 42.2616C1.93821 42.6456 2.15155 42.8803 2.53555 42.9656C2.91955 43.051 3.21821 42.923 3.43155 42.5816C5.60755 39.0403 8.33821 35.9896 11.6235 33.4296C11.2822 34.1976 11.0689 34.987 10.9835 35.7976C10.7702 37.7603 11.1755 39.851 12.1995 42.0696C12.7542 43.2216 13.4369 44.331 14.2475 45.3976L14.3115 45.4616C14.3969 45.675 14.5462 45.8243 14.7595 45.9096C14.9729 45.995 15.1862 45.995 15.3995 45.9096C15.6129 45.8243 15.7622 45.675 15.8475 45.4616C15.9329 45.2483 15.9329 45.035 15.8475 44.8216C15.6769 41.707 16.0609 38.6563 16.9995 35.6696C17.2555 35.6696 17.5115 35.627 17.7675 35.5416C18.8342 40.875 19.8795 45.1843 20.9035 48.4696C17.3622 49.9203 14.5035 51.7976 12.3275 54.1016C10.1089 56.491 8.91421 59.0723 8.74355 61.8456C8.70088 62.1443 8.78621 62.3896 8.99955 62.5816C9.21288 62.7736 9.46888 62.827 9.76755 62.7416C10.3649 62.571 10.8982 62.2723 11.3675 61.8456C12.0929 61.2056 12.9569 60.8856 13.9595 60.8856C14.9622 60.8856 15.8369 61.2163 16.5835 61.8776C17.3302 62.539 18.2155 62.8696 19.2395 62.8696C20.2635 62.8696 21.1489 62.539 21.8955 61.8776C22.6422 61.2163 23.5169 60.8856 24.5195 60.8856C25.5222 60.8856 26.3969 61.2163 27.1435 61.8776C27.8902 62.539 28.7755 62.8696 29.7995 62.8696C30.8235 62.8696 31.7089 62.539 32.4555 61.8776C33.2022 61.2163 34.0769 60.8856 35.0795 60.8856C36.0822 60.8856 36.9569 61.2056 37.7035 61.8456C38.4502 62.4856 39.3249 62.8056 40.3275 62.8056C41.3302 62.8056 42.2049 62.4856 42.9515 61.8456C43.6982 61.2056 44.5729 60.8856 45.5755 60.8856C46.5782 60.8856 47.4529 61.2163 48.1995 61.8776C48.9462 62.539 49.8315 62.8696 50.8555 62.8696C51.8795 62.8696 52.7649 62.539 53.5115 61.8776C54.2582 61.2163 55.1329 60.8856 56.1355 60.8856C57.1382 60.8856 58.0022 61.2056 58.7275 61.8456C59.1969 62.2723 59.7302 62.571 60.3275 62.7416C60.6262 62.827 60.8929 62.7736 61.1275 62.5816C61.3622 62.3896 61.4582 62.1443 61.4155 61.8456C61.2449 59.6696 60.4662 57.611 59.0795 55.6696C57.6929 53.7283 55.8155 52.0323 53.4475 50.5816C51.0795 49.131 48.3809 47.979 45.3515 47.1256C45.3089 43.7976 44.7329 37.355 43.6235 27.7976H43.8155C44.2422 27.7976 44.6689 27.7336 45.0955 27.6056C47.5275 30.6776 49.3195 34.091 50.4715 37.8456C50.5142 38.0163 50.6209 38.155 50.7915 38.2616C50.9622 38.3683 51.1329 38.4216 51.3035 38.4216C51.6875 38.4216 51.9435 38.251 52.0715 37.9096C52.2849 37.3976 52.4769 36.6936 52.6475 35.7976C53.0315 34.1763 53.2022 32.619 53.1595 31.1256C53.1169 29.035 52.6902 27.2003 51.8795 25.6216C51.3249 24.5123 50.5782 23.531 49.6395 22.6776C54.7595 24.2136 59.4315 26.6243 63.6555 29.9096C63.9542 30.1656 64.2742 30.187 64.6155 29.9736C64.9569 29.7603 65.0849 29.4616 64.9995 29.0776ZM43.5595 26.0696C43.5169 26.0696 43.4742 26.0696 43.4315 26.0696C43.1329 26.027 42.8342 25.9203 42.5355 25.7496C41.8529 25.4083 41.4049 24.875 41.1915 24.1496V24.0216C41.1062 23.723 41.0849 23.4243 41.1275 23.1256V22.9336C41.2129 22.6776 41.3195 22.4216 41.4475 22.1656V22.1016L41.6395 21.7816C42.1089 21.5683 42.5142 21.2696 42.8555 20.8856C43.0262 20.843 43.2182 20.8003 43.4315 20.7576L43.8155 20.6936H44.0715C44.2422 20.7363 44.4235 20.779 44.6155 20.8216C44.8075 20.8643 44.9889 20.9496 45.1595 21.0776C45.6289 21.3336 45.9809 21.707 46.2155 22.1976C46.4502 22.6883 46.5462 23.1896 46.5035 23.7016C46.4182 24.427 46.0982 25.0243 45.5435 25.4936C45.0315 25.9203 44.4342 26.1123 43.7515 26.0696H43.5595ZM59.4315 60.2456C58.4502 59.5203 57.3622 59.179 56.1675 59.2216C54.8022 59.179 53.5862 59.6056 52.5195 60.5016C52.0502 60.9283 51.4955 61.1416 50.8555 61.1416C50.2155 61.1416 49.6609 60.9283 49.1915 60.5016C48.1675 59.6483 46.9729 59.2216 45.6075 59.2216C44.2422 59.2216 43.0475 59.6483 42.0235 60.5016C41.5542 60.9283 40.9995 61.1416 40.3595 61.1416C39.7195 61.1416 39.1649 60.9283 38.6955 60.5016C37.6289 59.6056 36.4235 59.1576 35.0795 59.1576C33.7355 59.1576 32.5302 59.6056 31.4635 60.5016C30.9942 60.9283 30.4395 61.1416 29.7995 61.1416C29.1595 61.1416 28.6049 60.9283 28.1355 60.5016C27.0689 59.6056 25.8635 59.1576 24.5195 59.1576C23.1755 59.1576 21.9702 59.6056 20.9035 60.5016C20.4342 60.9283 19.8795 61.1416 19.2395 61.1416C18.5995 61.1416 18.0449 60.9283 17.5755 60.5016C16.5515 59.6483 15.3569 59.2216 13.9915 59.2216C12.7969 59.2216 11.7089 59.5843 10.7275 60.3096C11.1542 58.6883 11.9649 57.163 13.1595 55.7336C14.3542 54.3043 15.9115 53.0136 17.8315 51.8616C18.9835 51.179 20.1782 50.5816 21.4155 50.0696C21.5862 50.7096 21.8422 51.307 22.1835 51.8616C22.5249 52.2883 22.9622 52.619 23.4955 52.8536C24.0289 53.0883 24.5942 53.195 25.1915 53.1736C25.7889 53.1523 26.3862 53.0563 26.9835 52.8856C27.1542 52.8856 27.3035 52.8643 27.4315 52.8216L28.6475 52.3736C28.7755 52.331 28.8822 52.267 28.9675 52.1816C31.0582 50.987 32.0395 49.6856 31.9115 48.2776C31.9115 48.0643 31.8902 47.851 31.8475 47.6376L34.6635 47.5096C34.6635 48.0216 34.7062 48.5123 34.7915 48.9816C34.9622 49.707 35.3675 50.3043 36.0075 50.7736C36.9035 51.4563 38.2262 51.7976 39.9755 51.7976C41.4262 51.7976 42.6102 51.5523 43.5275 51.0616C44.4449 50.571 45.0102 49.8776 45.2235 48.9816V48.8536C47.6982 49.5363 50.0449 50.539 52.2635 51.8616C54.1835 53.0136 55.7515 54.3043 56.9675 55.7336C58.1835 57.163 59.0049 58.667 59.4315 60.2456ZM17.6395 33.8136C17.5542 33.8563 17.4689 33.8776 17.3835 33.8776C17.1702 33.9203 16.9569 33.9416 16.7435 33.9416C16.2742 33.9416 15.8582 33.803 15.4955 33.5256C15.1329 33.2483 14.8769 32.8963 14.7275 32.4696C14.5782 32.043 14.5675 31.6163 14.6955 31.1896C14.8235 30.763 15.0582 30.4003 15.3995 30.1016L15.5275 30.0376V29.9736C15.5275 29.9736 15.5489 29.9736 15.5915 29.9736C15.7195 29.8883 15.8475 29.8243 15.9755 29.7816L16.3595 29.6536L16.8075 29.5896C17.2769 29.5896 17.7035 29.739 18.0875 30.0376L18.2795 30.1656C18.4502 30.3363 18.5782 30.507 18.6635 30.6776L18.7275 30.7416V30.8696C18.7702 30.9123 18.7915 30.955 18.7915 30.9976L18.9195 31.2536C18.9622 31.5523 18.9622 31.851 18.9195 32.1496V32.3416C18.7489 32.9816 18.3649 33.451 17.7675 33.7496L17.6395 33.8136ZM14.1195 42.0696C13.0102 40.1923 12.5195 38.1656 12.6475 35.9896C12.7755 35.179 13.0315 34.411 13.4155 33.6856C13.8422 34.4536 14.4609 35.0083 15.2715 35.3496C14.5889 37.5256 14.2049 39.7656 14.1195 42.0696ZM3.43155 39.5736C3.43155 38.1656 3.60221 36.779 3.94355 35.4136C5.18088 30.891 8.18888 28.2243 12.9675 27.4136C13.2235 27.371 13.4262 27.2643 13.5755 27.0936C13.7249 26.923 13.7782 26.7096 13.7355 26.4536C13.6929 26.1976 13.5862 25.995 13.4155 25.8456C13.2449 25.6963 13.0315 25.643 12.7755 25.6856C9.57555 25.771 6.56755 26.603 3.75155 28.1816C4.90355 26.347 6.48221 25.0243 8.48755 24.2136C9.76755 23.7443 11.0689 23.659 12.3915 23.9576C12.7329 24.043 13.0102 23.9363 13.2235 23.6376C13.4369 23.339 13.4582 23.0403 13.2875 22.7416C13.2022 22.5283 13.1382 22.283 13.0955 22.0056C13.0529 21.7283 13.2769 21.419 13.7675 21.0776C14.2582 20.7363 14.9089 20.4163 15.7195 20.1176C16.4875 19.819 17.1809 19.6483 17.7995 19.6056C18.4182 19.563 18.8129 19.6483 18.9835 19.8616C19.0262 19.947 19.0689 20.0536 19.1115 20.1816C17.2769 22.6136 15.9755 25.3016 15.2075 28.2456C14.2689 28.6723 13.6075 29.355 13.2235 30.2936C9.34088 32.7256 6.07688 35.819 3.43155 39.5736ZM26.6635 13.6536C25.2129 13.6536 23.7622 13.7816 22.3115 14.0376C23.3782 13.1416 24.5622 12.427 25.8635 11.8936C27.1649 11.3603 28.5195 11.0723 29.9275 11.0296H30.0555C31.5915 11.0296 33.0209 11.4136 34.3435 12.1816C34.6849 12.395 35.0262 12.6083 35.3675 12.8216C35.7942 13.1203 36.1995 13.4616 36.5835 13.8456C36.6689 13.8883 36.7755 13.995 36.9035 14.1656L37.0315 14.2936C37.0315 14.3363 37.0102 14.3576 36.9675 14.3576L36.9035 14.4216C36.8609 14.4216 36.8395 14.443 36.8395 14.4856C36.5835 14.6563 36.3702 14.8696 36.1995 15.1256L36.0715 15.3816L35.3675 15.1256H35.2395C34.8555 14.9976 34.4715 14.9123 34.0875 14.8696C31.8262 14.1016 29.4795 13.6963 27.0475 13.6536H26.6635ZM35.9435 10.5816C36.0715 10.1976 36.4982 9.89896 37.2235 9.68563C37.9062 9.51496 38.7169 9.42963 39.6555 9.42963H40.0395C41.0209 9.38696 41.8742 9.45096 42.5995 9.62163C43.4102 9.83496 43.8795 10.155 44.0075 10.5816C44.0502 10.7523 44.0715 10.9443 44.0715 11.1576C43.0049 11.883 42.0449 12.715 41.1915 13.6536C40.3809 13.355 39.5489 13.3123 38.6955 13.5256C37.8849 12.6296 36.9675 11.8403 35.9435 11.1576C35.9435 10.9443 35.9649 10.7523 36.0075 10.5816H35.9435ZM50.0235 11.0296C51.4315 11.0723 52.7969 11.3496 54.1195 11.8616C55.4422 12.3736 56.6369 13.099 57.7035 14.0376C56.1249 13.739 54.5249 13.611 52.9035 13.6536C50.5142 13.6963 48.1889 14.1016 45.9275 14.8696C45.5009 14.9123 45.0955 14.9976 44.7115 15.1256H44.5835L43.4315 15.5096C43.3462 15.339 43.2395 15.1683 43.1115 14.9976L42.9835 14.8696C42.8982 14.7416 42.7915 14.635 42.6635 14.5496C43.0049 14.2083 43.2609 13.9736 43.4315 13.8456C43.8155 13.4616 44.2209 13.1203 44.6475 12.8216C44.9462 12.6083 45.2662 12.395 45.6075 12.1816C46.9302 11.4136 48.3595 11.0296 49.8955 11.0296H50.0235ZM37.7995 25.3656C37.7569 25.4083 37.6929 25.4723 37.6075 25.5576L37.4795 25.6216C37.2662 25.7496 37.0315 25.8563 36.7755 25.9416H36.5835L36.3915 26.0056C36.0075 26.0483 35.6555 26.0163 35.3355 25.9096C35.0155 25.803 34.7275 25.6643 34.4715 25.4936C34.3009 25.3656 34.1515 25.2163 34.0235 25.0456C33.5969 24.5763 33.3835 24.0216 33.3835 23.3816L33.4475 23.0616C33.4475 22.891 33.4689 22.7203 33.5115 22.5496V22.4856C33.5969 22.2296 33.7249 21.9736 33.8955 21.7176C34.1515 21.3763 34.4822 21.099 34.8875 20.8856C35.2929 20.6723 35.7089 20.5656 36.1355 20.5656L36.3275 20.6296L36.5835 20.8856C37.1382 21.4403 37.7782 21.8243 38.5035 22.0376C38.5035 22.0803 38.5249 22.1016 38.5675 22.1016V22.1656C38.6529 22.4216 38.7169 22.6776 38.7595 22.9336L38.8235 22.9976C38.8235 23.1683 38.8235 23.3603 38.8235 23.5736C38.7809 23.7443 38.7382 23.915 38.6955 24.0856C38.6102 24.427 38.4609 24.7256 38.2475 24.9816C38.1195 25.1096 37.9702 25.2376 37.7995 25.3656ZM34.7275 45.8456C33.5329 45.8456 32.3595 45.9096 31.2075 46.0376C30.1409 43.435 27.9009 39.019 24.4875 32.7896L24.6795 32.6616C25.4902 33.131 26.2795 33.6643 27.0475 34.2616C27.2182 35.499 27.4955 36.715 27.8795 37.9096C27.9222 38.0803 28.0289 38.219 28.1995 38.3256C28.3702 38.4323 28.5409 38.4856 28.7115 38.4856C28.8822 38.4856 29.0422 38.4216 29.1915 38.2936C29.3409 38.1656 29.4369 38.0163 29.4795 37.8456L29.8635 36.8216C30.2475 37.2483 30.8662 37.9736 31.7195 38.9976C31.9755 39.2963 32.2849 39.3816 32.6475 39.2536C33.0102 39.1256 33.1915 38.8696 33.1915 38.4856C33.1489 36.3096 32.7009 34.2403 31.8475 32.2776C32.6155 30.7416 33.5329 29.3123 34.5995 27.9896C35.1542 28.075 35.7302 28.1816 36.3275 28.3096C35.3462 36.2456 34.8129 42.091 34.7275 45.8456ZM21.8635 31.6376C21.7355 31.595 21.6289 31.5523 21.5435 31.5096C21.2875 31.4243 21.0529 31.275 20.8395 31.0616L20.7755 30.9976C20.6475 30.8696 20.5409 30.7416 20.4555 30.6136L20.3275 30.3576L20.2635 30.1016C20.1782 29.8456 20.1569 29.5683 20.1995 29.2696V29.2056C20.3275 28.4803 20.7115 27.947 21.3515 27.6056L21.5435 27.4776C21.9702 27.307 22.3969 27.2643 22.8235 27.3496C23.5489 27.4776 24.0609 27.883 24.3595 28.5656C24.6582 29.2483 24.6369 29.9096 24.2955 30.5496C24.1675 30.8056 23.9969 31.0403 23.7835 31.2536C23.6982 31.2536 23.6555 31.275 23.6555 31.3176C23.5275 31.403 23.3782 31.4883 23.2075 31.5736L22.8235 31.6376L22.6955 31.7016C22.3969 31.7443 22.1195 31.723 21.8635 31.6376ZM18.5355 28.3096L18.7275 28.1816C18.7275 28.267 18.7062 28.331 18.6635 28.3736L18.5355 28.3096ZM32.6795 26.0696C32.8929 26.3256 33.1275 26.5603 33.3835 26.7736L33.1915 26.9656L32.6155 27.7336C31.9755 28.6296 31.3782 29.5683 30.8235 30.5496L30.6315 30.8696C30.5035 31.083 30.4182 31.2536 30.3755 31.3816L29.9275 32.2776C29.5862 32.9603 29.3515 33.4936 29.2235 33.8776L28.8395 34.7096L28.6475 33.3656C28.5195 32.3843 28.4982 31.403 28.5835 30.4216C28.5835 30.1656 28.6262 29.8243 28.7115 29.3976C28.7542 29.099 28.8075 28.7896 28.8715 28.4696C28.9355 28.1496 29.0209 27.8403 29.1275 27.5416C29.2342 27.243 29.3515 26.9656 29.4795 26.7096C29.5649 26.539 29.6289 26.4323 29.6715 26.3896C29.7569 26.1336 29.8422 25.963 29.9275 25.8776C30.3969 25.067 30.9942 24.363 31.7195 23.7656C31.8049 24.619 32.1249 25.387 32.6795 26.0696ZM31.2075 35.7976C30.9942 35.5416 30.7595 35.307 30.5035 35.0936C30.5889 34.8376 30.6955 34.603 30.8235 34.3896L31.2075 35.7976ZM26.2155 28.8856C26.4715 29.0136 26.7275 29.1416 26.9835 29.2696C26.8555 30.1656 26.8129 31.083 26.8555 32.0216C26.4715 31.7656 26.1089 31.5523 25.7675 31.3816C26.1942 30.6136 26.3435 29.7816 26.2155 28.8856ZM28.1355 25.6216C28.0929 25.707 28.0502 25.7923 28.0075 25.8776C26.8129 25.9203 25.6182 26.027 24.4235 26.1976C23.9542 25.9416 23.4635 25.771 22.9515 25.6856C25.2982 24.4483 27.7515 23.4456 30.3115 22.6776C29.4155 23.531 28.6902 24.5123 28.1355 25.6216ZM37.6075 16.0856C37.6929 16.0003 37.7569 15.9576 37.7995 15.9576L37.9915 15.7016L38.1835 15.5736C38.7382 15.1896 39.3355 15.0403 39.9755 15.1256C40.7009 15.211 41.2982 15.531 41.7675 16.0856H41.8315C41.9169 16.2136 42.0022 16.363 42.0875 16.5336L42.1515 16.5976L42.2155 16.7896C42.3009 17.003 42.3649 17.2163 42.4075 17.4296V17.6216V18.0696L42.3435 18.4536C42.2582 18.8376 42.0875 19.179 41.8315 19.4776C41.7035 19.6483 41.5755 19.7976 41.4475 19.9256L41.1275 20.1176C40.9569 20.203 40.7862 20.2883 40.6155 20.3736L40.2315 20.4376C40.1889 20.4803 40.1035 20.5016 39.9755 20.5016H39.4635C39.2075 20.459 38.9515 20.395 38.6955 20.3096C38.6529 20.3096 38.6102 20.2883 38.5675 20.2456C38.0555 19.9896 37.6609 19.6163 37.3835 19.1256C37.1062 18.635 36.9889 18.1123 37.0315 17.5576L37.0955 17.1096C37.0955 17.0243 37.1169 16.9603 37.1595 16.9176L37.4155 16.3416L37.6075 16.0856ZM28.4555 16.4056C30.2475 16.1496 32.0182 16.1923 33.7675 16.5336C34.1515 16.5763 34.5355 16.6403 34.9195 16.7256L35.3675 16.9176V17.1736C35.3675 17.259 35.3462 17.323 35.3035 17.3656C35.2609 17.9203 35.3035 18.4536 35.4315 18.9656C34.4075 19.1363 33.5542 19.6056 32.8715 20.3736C32.3169 20.459 31.7622 20.5656 31.2075 20.6936L29.2235 21.2696C28.1995 21.5683 27.1115 21.9523 25.9595 22.4216C22.8875 23.659 20.0075 25.2163 17.3195 27.0936C18.2582 24.235 19.7942 21.739 21.9275 19.6056C22.4822 19.0936 23.0475 18.6456 23.6235 18.2616C24.1995 17.8776 24.7862 17.5576 25.3835 17.3016C26.3649 16.875 27.3889 16.5763 28.4555 16.4056ZM20.5195 32.9176C20.6049 33.003 20.7115 33.067 20.8395 33.1096C21.4795 33.3656 22.1409 33.451 22.8235 33.3656C24.0609 35.5843 25.2982 37.867 26.5355 40.2136C27.8155 42.731 28.7969 44.7363 29.4795 46.2296C29.6075 46.4856 29.7142 46.7416 29.7995 46.9976L30.1195 47.8296C30.1622 48.0003 30.2049 48.1923 30.2475 48.4056C30.2902 49.131 29.5222 49.9203 27.9435 50.7736L27.7515 50.9016L27.1115 51.1576C27.0262 51.1576 26.9409 51.1576 26.8555 51.1576C25.1489 51.5843 24.0395 51.499 23.5275 50.9016C23.2715 50.475 23.0795 50.0056 22.9515 49.4936L22.6955 48.6616C22.6102 48.3203 22.5249 48.0643 22.4395 47.8936C21.7569 45.4616 20.7115 41.067 19.3035 34.7096C19.9009 34.2403 20.3062 33.643 20.5195 32.9176ZM43.6235 47.6376C43.6235 47.9363 43.6022 48.2136 43.5595 48.4696V48.5976C43.4315 49.1523 42.9409 49.5576 42.0875 49.8136C41.5329 49.9843 40.8289 50.0696 39.9755 50.0696C39.1222 50.0696 38.4182 49.9843 37.8635 49.8136C37.0529 49.5576 36.5835 49.1523 36.4555 48.5976C36.3702 48.2563 36.3275 47.915 36.3275 47.5736V46.6776C36.3275 46.4216 36.3489 46.1443 36.3915 45.8456C36.4769 42.6883 37.0102 36.9923 37.9915 28.7576C37.9915 28.459 38.0129 28.1816 38.0555 27.9256C38.0982 27.6696 38.1195 27.435 38.1195 27.2216C38.3329 27.0936 38.5462 26.9656 38.7595 26.8376L38.8875 26.7096C39.0582 26.5816 39.2395 26.411 39.4315 26.1976C39.6235 25.9843 39.7835 25.7496 39.9115 25.4936C40.3382 26.3043 40.9782 26.923 41.8315 27.3496C42.3009 31.1043 42.7062 34.6883 43.0475 38.1016C43.3889 42.027 43.5809 44.907 43.6235 46.7416V47.5736V47.6376ZM46.6315 26.7736C47.5275 26.0056 48.0395 25.0243 48.1675 23.8296C48.1675 23.7443 48.1889 23.7016 48.2315 23.7016C49.1275 24.427 49.8315 25.3016 50.3435 26.3256C51.4529 28.587 51.7302 31.3816 51.1755 34.7096C50.0662 31.851 48.5515 29.2056 46.6315 26.7736ZM46.9515 20.3096C46.2262 19.5416 45.3302 19.115 44.2635 19.0296H43.9435C44.0289 18.7736 44.0715 18.5176 44.0715 18.2616C44.1142 18.0056 44.1142 17.7283 44.0715 17.4296V17.1096L45.0955 16.7896C45.4795 16.6616 45.8635 16.5763 46.2475 16.5336C50.0449 15.851 53.3942 16.427 56.2955 18.2616C57.9169 19.3283 59.3249 20.779 60.5195 22.6136C61.3729 23.9363 62.0982 25.4296 62.6955 27.0936C57.9169 23.723 52.6689 21.4616 46.9515 20.3096Z" fill="#735C2B"/>
</svg>
